PathFileType	4	(X/Y/Z)
DataRate	CameraRate	NumFrames	NumMarkers	Units	OrigDataRate	OrigDataStartFrame	OrigNumFrames	
	120.0	120.0	10	39	mm	120.0	18	142
Frame#	Time	midhip	hip_r	hip_l	knee_r	knee_l	ankle_r	ankle_l	midasis	asis_r	asis_l	psis_r	psis_l	epicondLat_r	epicondLat_l	epicondMed_r	epicondMed_l	malleolusLat_r	malleolusLat_l	malleolusMedv_r	malleolusMedv_l	heel_r	heel_l	sternalnotch	xyphoidprocess	neck	subclavicle_r	subclavicle_l	toe_r	toe_l	thighwand_r	thighwand_l	upperleg1_r	upperleg1_l	upperleg2_r	upperleg2_l	shankwand_r	shankwand_l	lowerleg1_r	lowerleg1_l
	X1	Y1	Z1	X2	Y2	Z2	X3	Y3	Z3	X4	Y4	Z4	X5	Y5	Z5	X6	Y6	Z6	X7	Y7	Z7	X8	Y8	Z8	X9	Y9	Z9	X10	Y10	Z10	X11	Y11	Z11	X12	Y12	Z12	X13	Y13	Z13	X14	Y14	Z14	X15	Y15	Z15	X16	Y16	Z16	X17	Y17	Z17	X18	Y18	Z18	X19	Y19	Z19	X20	Y20	Z20	X21	Y21	Z21	X22	Y22	Z22	X23	Y23	Z23	X24	Y24	Z24	X25	Y25	Z25	X26	Y26	Z26	X27	Y27	Z27	X28	Y28	Z28	X29	Y29	Z29	X30	Y30	Z30	X31	Y31	Z31	X32	Y32	Z32	X33	Y33	Z33	X34	Y34	Z34	X35	Y35	Z35	X36	Y36	Z36	X37	Y37	Z37	X38	Y38	Z38	X39	Y39	Z39

	18	0.15000	540.113	743.104	-263.992	531.616	744.761	-199.412	548.611	741.447	-328.572	480.060	406.591	-156.090	485.286	424.170	-353.124	511.459	66.844	-119.485	494.469	70.318	-390.792	612.418	809.465	-256.180	598.739	812.132	-152.223	626.097	806.797	-360.138	454.098	855.581	-244.648	457.388	853.719	-299.621	475.962	414.174	-101.770	483.952	428.639	-407.424	485.999	406.788	-207.965	489.903	400.085	-305.832	499.342	69.537	-84.099	484.258	73.821	-426.182	515.294	65.786	-142.046	497.813	66.512	-372.345	477.830	37.468	-143.928	437.229	41.314	-380.916	552.661	1172.074	-273.093	589.441	1093.255	-274.753	460.049	1218.674	-287.688	564.759	1171.678	-233.315	568.514	1177.285	-308.313	607.165	36.617	-85.007	595.904	38.895	-420.582	591.049	528.677	-56.855	659.722	526.280	-355.761	526.440	588.524	-98.572	599.112	597.324	-382.437	515.339	501.393	-106.616	574.476	513.422	-385.329	466.338	185.252	-21.573	490.679	205.556	-487.868	480.684	144.583	-91.963	478.696	158.425	-419.222
	19	0.15833	540.091	743.107	-263.990	531.608	744.758	-199.408	548.573	741.455	-328.572	480.061	406.585	-156.080	485.265	424.164	-353.110	511.447	66.831	-119.486	494.463	70.326	-390.794	612.392	809.473	-256.190	598.737	812.131	-152.229	626.046	806.814	-360.152	454.062	855.570	-244.629	457.387	853.713	-299.597	475.971	414.168	-101.759	483.917	428.632	-407.410	485.986	406.783	-207.941	489.990	400.081	-305.739	499.334	69.523	-84.098	484.244	73.829	-426.182	515.287	65.781	-142.049	497.811	66.492	-372.348	477.818	37.468	-143.931	437.230	41.303	-380.909	552.536	1172.199	-272.944	589.320	1093.383	-274.685	460.010	1218.665	-287.701	565.221	1172.048	-233.483	567.864	1177.201	-308.286	607.166	36.623	-85.006	595.900	38.910	-420.589	591.066	528.668	-56.867	659.668	526.315	-355.819	526.461	588.503	-98.552	599.068	597.333	-382.469	515.358	501.394	-106.595	574.474	513.436	-385.319	466.355	185.245	-21.566	490.637	205.567	-487.865	480.692	144.583	-91.930	478.699	158.413	-419.207
	20	0.16667	540.062	743.112	-263.984	531.594	744.761	-199.400	548.531	741.464	-328.568	480.062	406.585	-156.070	485.235	424.163	-353.094	511.436	66.825	-119.484	494.454	70.338	-390.796	612.359	809.485	-256.198	598.727	812.138	-152.233	625.991	806.832	-360.164	454.023	855.562	-244.606	457.378	853.707	-299.569	475.981	414.167	-101.748	483.875	428.632	-407.394	485.996	406.744	-207.846	490.551	399.904	-305.511	499.329	69.518	-84.095	484.226	73.842	-426.181	515.226	65.802	-142.060	497.780	66.494	-372.346	477.804	37.472	-143.934	437.231	41.297	-380.904	553.044	1172.317	-273.191	590.097	1093.622	-274.654	459.960	1218.660	-287.711	565.163	1172.075	-233.485	568.860	1177.484	-308.364	607.163	36.632	-85.006	595.891	38.933	-420.596	591.087	528.664	-56.881	659.600	526.359	-355.893	526.479	588.514	-98.542	598.665	597.574	-382.614	515.391	501.397	-106.548	574.435	513.506	-385.327	466.370	185.242	-21.558	490.588	205.582	-487.863	480.663	144.606	-91.900	478.676	158.428	-419.216
	21	0.17500	540.030	743.119	-263.976	531.576	744.766	-199.390	548.483	741.472	-328.562	480.062	406.589	-156.059	485.199	424.167	-353.078	511.428	66.829	-119.482	494.443	70.351	-390.797	612.321	809.499	-256.207	598.714	812.150	-152.240	625.929	806.847	-360.173	453.981	855.560	-244.578	457.361	853.698	-299.538	475.991	414.170	-101.736	483.827	428.636	-407.377	486.103	406.717	-207.804	490.792	399.875	-305.427	499.328	69.522	-84.090	484.208	73.856	-426.180	515.145	65.843	-142.072	497.746	66.520	-372.337	477.792	37.478	-143.935	437.231	41.293	-380.901	552.818	1172.344	-273.117	589.838	1093.634	-274.632	459.902	1218.656	-287.716	565.089	1172.144	-233.475	568.501	1177.463	-308.339	607.158	36.643	-85.006	595.880	38.957	-420.601	591.114	528.663	-56.898	659.525	526.402	-355.972	526.464	588.541	-98.533	598.421	597.744	-382.725	515.447	501.402	-106.527	574.372	513.601	-385.368	466.384	185.242	-21.548	490.539	205.596	-487.859	480.648	144.626	-91.913	478.618	158.467	-419.234
	22	0.18333	539.991	743.126	-263.965	531.555	744.774	-199.377	548.427	741.478	-328.553	480.062	406.596	-156.047	485.159	424.174	-353.060	511.426	66.841	-119.481	494.437	70.359	-390.798	612.279	809.512	-256.217	598.700	812.164	-152.251	625.859	806.859	-360.183	453.934	855.563	-244.546	457.337	853.685	-299.504	476.002	414.174	-101.723	483.775	428.644	-407.358	486.184	406.737	-207.824	490.621	399.977	-305.522	499.332	69.534	-84.087	484.193	73.864	-426.178	515.103	65.871	-142.074	497.726	66.551	-372.326	477.786	37.485	-143.934	437.230	41.292	-380.899	552.781	1172.415	-273.124	589.855	1093.730	-274.621	459.854	1218.659	-287.744	565.022	1172.218	-233.466	568.488	1177.550	-308.341	607.156	36.649	-85.006	595.872	38.971	-420.604	591.147	528.663	-56.920	659.451	526.432	-356.051	526.456	588.565	-98.512	598.400	597.796	-382.754	515.492	501.402	-106.529	574.277	513.665	-385.430	466.401	185.244	-21.538	490.495	205.605	-487.853	480.662	144.636	-91.920	478.563	158.498	-419.242
	23	0.19167	539.946	743.130	-263.952	531.530	744.781	-199.361	548.362	741.478	-328.543	480.065	406.602	-156.037	485.122	424.178	-353.041	511.428	66.857	-119.481	494.445	70.354	-390.796	612.234	809.519	-256.231	598.688	812.178	-152.269	625.780	806.861	-360.193	453.880	855.572	-244.511	457.307	853.669	-299.466	476.017	414.178	-101.711	483.724	428.649	-407.339	486.022	406.785	-207.813	490.479	400.050	-305.546	499.342	69.550	-84.084	484.192	73.859	-426.174	515.130	65.863	-142.064	497.717	66.573	-372.313	477.789	37.487	-143.931	437.227	41.296	-380.897	552.749	1172.436	-273.146	589.832	1093.755	-274.592	459.808	1218.667	-287.788	564.970	1172.258	-233.498	568.472	1177.557	-308.341	607.157	36.645	-85.008	595.869	38.968	-420.604	591.184	528.661	-56.946	659.386	526.439	-356.122	526.511	588.561	-98.504	598.389	597.825	-382.764	515.469	501.420	-106.523	574.184	513.676	-385.458	466.418	185.247	-21.525	490.460	205.606	-487.844	480.688	144.636	-91.901	478.554	158.506	-419.242
	24	0.20000	539.896	743.128	-263.938	531.504	744.787	-199.344	548.288	741.470	-328.532	480.072	406.606	-156.029	485.089	424.173	-353.023	511.439	66.867	-119.482	494.475	70.333	-390.793	612.187	809.518	-256.250	598.682	812.187	-152.296	625.693	806.849	-360.204	453.820	855.584	-244.476	457.270	853.652	-299.430	476.036	414.178	-101.702	483.674	428.646	-407.321	485.882	406.802	-207.788	490.510	400.066	-305.412	499.360	69.560	-84.083	484.211	73.837	-426.168	515.182	65.832	-142.056	497.753	66.565	-372.313	477.805	37.482	-143.924	437.222	41.304	-380.896	552.796	1172.451	-273.212	589.906	1093.781	-274.575	459.759	1218.672	-287.822	564.952	1172.288	-233.555	568.575	1177.567	-308.370	607.162	36.633	-85.011	595.873	38.945	-420.601	591.226	528.659	-56.975	659.337	526.415	-356.175	526.577	588.548	-98.507	598.314	597.851	-382.818	515.458	501.419	-106.517	574.119	513.648	-385.448	466.434	185.254	-21.510	490.436	205.597	-487.834	480.713	144.616	-91.903	478.583	158.486	-419.230
	25	0.20833	539.841	743.124	-263.925	531.476	744.790	-199.328	548.207	741.457	-328.522	480.081	406.608	-156.022	485.058	424.161	-353.006	511.456	66.870	-119.487	494.523	70.301	-390.791	612.141	809.509	-256.274	598.679	812.190	-152.330	625.602	806.827	-360.217	453.754	855.603	-244.440	457.228	853.637	-299.395	476.055	414.176	-101.694	483.625	428.636	-407.303	485.943	406.798	-207.811	490.244	400.177	-305.407	499.384	69.562	-84.086	484.247	73.803	-426.163	515.229	65.814	-142.058	497.813	66.537	-372.328	477.829	37.470	-143.915	437.219	41.315	-380.895	552.959	1172.472	-273.348	590.123	1093.825	-274.564	459.711	1218.690	-287.849	564.943	1172.309	-233.618	568.888	1177.605	-308.457	607.172	36.619	-85.014	595.882	38.913	-420.595	591.267	528.657	-57.004	659.305	526.368	-356.211	526.610	588.552	-98.501	598.485	597.767	-382.773	515.509	501.386	-106.529	574.080	513.572	-385.429	466.448	185.263	-21.495	490.420	205.580	-487.825	480.742	144.593	-91.919	478.628	158.452	-419.199
	26	0.21667	539.782	743.119	-263.912	531.442	744.794	-199.312	548.122	741.444	-328.512	480.086	406.608	-156.013	485.023	424.143	-352.991	511.473	66.868	-119.494	494.573	70.266	-390.790	612.091	809.498	-256.298	598.673	812.192	-152.364	625.510	806.803	-360.231	453.683	855.625	-244.403	457.180	853.627	-299.363	476.070	414.174	-101.684	483.574	428.620	-407.287	486.086	406.785	-207.870	489.657	400.372	-305.569	499.408	69.558	-84.091	484.288	73.766	-426.159	515.297	65.804	-142.049	497.871	66.502	-372.343	477.855	37.455	-143.905	437.216	41.327	-380.895	552.703	1172.407	-273.290	589.721	1093.692	-274.583	459.662	1218.732	-287.879	564.910	1172.291	-233.681	568.443	1177.450	-308.442	607.183	36.606	-85.017	595.892	38.881	-420.590	591.305	528.656	-57.029	659.280	526.314	-356.237	526.652	588.540	-98.503	598.947	597.554	-382.581	515.591	501.346	-106.558	574.077	513.441	-385.392	466.460	185.273	-21.481	490.409	205.559	-487.817	480.783	144.571	-91.926	478.682	158.398	-419.168
	27	0.22500	539.722	743.118	-263.898	531.404	744.801	-199.296	548.039	741.435	-328.501	480.084	406.607	-155.998	484.978	424.123	-352.980	511.484	66.864	-119.500	494.612	70.236	-390.790	612.039	809.491	-256.317	598.659	812.198	-152.392	625.419	806.783	-360.242	453.608	855.646	-244.365	457.128	853.621	-299.334	476.077	414.171	-101.668	483.518	428.602	-407.276	486.231	406.774	-207.939	489.390	400.464	-305.556	499.424	69.553	-84.094	484.319	73.735	-426.157	515.374	65.799	-142.032	497.923	66.470	-372.359	477.876	37.440	-143.897	437.214	41.337	-380.895	552.588	1172.367	-273.327	589.516	1093.610	-274.594	459.608	1218.777	-287.927	564.864	1172.284	-233.759	568.273	1177.352	-308.491	607.194	36.594	-85.023	595.900	38.856	-420.586	591.335	528.657	-57.050	659.250	526.272	-356.262	526.714	588.513	-98.508	599.180	597.442	-382.497	515.677	501.311	-106.592	574.066	513.316	-385.349	466.468	185.282	-21.466	490.395	205.540	-487.812	480.820	144.551	-91.938	478.726	158.344	-419.158
